# This file uses centimeters as units for non-parametric coordinates.

mtllib SelectTile.mtl
g default
v -0.439819 0.000000 0.447125
v 0.439819 0.000000 0.447125
v -0.439819 -0.000000 -0.447125
v 0.439819 -0.000000 -0.447125
vt 0.000000 0.000000
vt 1.000000 0.000000
vt 0.000000 0.976744
vt 1.000000 0.976744
vn 0.000000 1.000000 -0.000000
vn 0.000000 1.000000 -0.000000
vn 0.000000 1.000000 -0.000000
vn 0.000000 1.000000 -0.000000
s 1
g Select_Quad
usemtl initialShadingGroup
f 1/1/1 2/2/2 3/3/3
f 3/3/3 2/2/2 4/4/4
