# This file uses centimeters as units for non-parametric coordinates.

mtllib TextPlane.mtl
g default
v -5.270487 -0.228081 5.431458
v 5.282460 -0.228081 5.431458
v -5.270487 -0.228081 -5.368605
v 5.282460 -0.228081 -5.368605
vt 0.000000 0.000000
vt 1.000000 0.000000
vt 0.000000 0.100787
vt 1.000000 0.100787
vn 0.000000 1.000000 0.000000
vn 0.000000 1.000000 0.000000
vn 0.000000 1.000000 0.000000
vn 0.000000 1.000000 0.000000
s 1
g Text
usemtl initialShadingGroup
f 1/1/1 2/2/2 3/3/3
f 3/3/3 2/2/2 4/4/4
